<?xml version="1.0" encoding="UTF-8"?>
<svg id="Capa_2" data-name="Capa 2" xmlns="http://www.w3.org/2000/svg" xmlns:xlink="http://www.w3.org/1999/xlink" viewBox="0 0 105.02 117.44">
  <defs>
    <style>
      .cls-1 {
        clip-path: url(#clippath);
      }

      .cls-2 {
        fill: none;
      }

      .cls-2, .cls-3 {
        stroke-width: 0px;
      }

      .cls-3 {
        fill: #463329;
      }
    </style>
    <clipPath id="clippath">
      <rect class="cls-2" width="105.02" height="117.44"/>
    </clipPath>
  </defs>
  <g id="Layer_1" data-name="Layer 1">
    <g class="cls-1">
      <path class="cls-3" d="m64.57,96.36l-59.58-.03c-.23,4.25,1.53,12.22,5.84,14.15,4.98,2.23,20.12.89,26.47,1.05,1.12.03,2.16.49,3.28.51,9.18.19,18.37.08,27.54.46,1.13-.14-1.66-3.74-1.9-4.27-1.5-3.42-1.45-8.15-1.66-11.87M100.16,19.48v-6.88c0-1.18-1.49-5.95-3.09-5.95-2.86,0-4.52,10.48-4.03,12.83h7.12ZM18.53,91.62h49.12c2.32,0,1.54,7.12,1.71,8.73.74,6.74,5.23,13.99,12.78,10.51,4-1.84,5.33-7.32,5.67-11.42,2.1-25.4-.85-51.46.5-76.86.32-6.07-.12-11.15,2.83-16.86-10.27-.99-20.75-.32-31.11-.46-9.86-.13-23.59-1.76-33.08-.37-5.98.87-7.55,8.21-7.95,13.41-.8,10.4.02,20.99.02,31.29,0,14.02.21,28.09-.5,42.02m-5.26-.05l1.01-11.09c.83-19.19-1.48-38.83-.5-57.94C14.21,14.03,15.69,1.07,26.34,0c20.43.21,40.9-.3,61.28.5,8.93.35,15.94.04,17.16,10.81.24,2.14.51,10.85-.31,12.24-2.02,3.4-10.36-1.93-11.31,2.45-1.26,23.18,1.32,47.56-.11,70.6-.53,8.57-2.94,18.98-13.1,20.12-14.65,1.66-30.79-.05-45.49-.44-6.43-.17-21.2,1.24-26.22-1.31-4.38-2.23-6.65-8.31-7.52-12.89-2.48-13.11,1.5-11.16,12.56-10.51"/>
      <path class="cls-3" d="m58.4,26.6h-21.83l-.2,25.21,22.03.42c.17-1.64-.74-5,1.28-5.6l15.04.41c.9-2.91,3.16-4.21,4.94-1.12l-.11,39.08c-1,3.07-11,2.69-13.8,2.36-1.98-.23-4.15-1.66-3.35-3.84.12-.45.21-.68.63-.91,1.51-.84,10.87.64,11.51,0l.47-30.85h-11.86c.08,2.25.17,5.37-2.65,5.67l-24.41-.92-.48,26.11,18.65.57c3.96,1.82,2.36,4.03-1.41,4.44-3.89.42-14.37.12-18.44-.25-5.49-.49-3.51-5.55-3.51-9.26,0-5.26.38-10.48.47-15.66.22-11.71-.63-25.07.44-36.58.15-1.6.37-3.42,2.04-4.13,2.39-1.02,8.35.1,11.01.13,9.68.13,21.54-.95,30.86-.01,1.75.18,5.27,1.05,4.47,3.48-.13.39-1.37,1.26-1.61,1.26h-14.71l-.71.71v12.81c0,1.44-4.75,1.88-4.75-.48v-13.05Z"/>
    </g>
  </g>
</svg>