<?xml version="1.0" encoding="UTF-8"?>
<svg id="Capa_2" data-name="Capa 2" xmlns="http://www.w3.org/2000/svg" xmlns:xlink="http://www.w3.org/1999/xlink" viewBox="0 0 115.68 104.07">
  <defs>
    <style>
      .cls-1 {
        clip-path: url(#clippath);
      }

      .cls-2 {
        fill: none;
      }

      .cls-2, .cls-3 {
        stroke-width: 0px;
      }

      .cls-3 {
        fill: #463329;
      }
    </style>
    <clipPath id="clippath">
      <rect class="cls-2" width="115.68" height="104.07"/>
    </clipPath>
  </defs>
  <g id="Layer_1" data-name="Layer 1">
    <g class="cls-1">
      <path class="cls-3" d="m111.37,33.27H6.21c-.92,10.97-.95,21.99-1.17,33.03-.15,7.54-.89,15.34-.43,22.93.1,1.58.62,6.22,1.25,7.45,1.37,2.65,8.51,2.08,11.21,2.23,16.35.93,32.61.58,48.97.34,11.79-.17,24.32-.02,36.04-.72,1.92-.11,5-.26,6.27-1.64,1.49-1.63,1.67-6.5,1.84-8.83.8-11.17,1.01-23.65,1.18-34.79.1-6.65-.11-13.33-.01-19.98m-26.09-20.56h-48.82c-.49,0-2.17.67-2.99.56-.39,3.62-1.52,7.67-5.82,8.05-5.04.45-5.67-4.65-6.67-8.24-3.31.34-10.41-.87-12.79,1.79-2.19,2.44-1.34,10.35-1.58,13.64l26.69.42,77.69-.59c1.01-.84.06-3.27.02-4.39-.11-3.04,1.31-11.14-2.62-11.62-2.6.59-9.18-.83-11.24.17-1.12.55-.71,3.29-1.16,4.77-.51,1.66-1.7,3.31-3.48,3.64-5.99,1.09-7.51-3.03-7.22-8.21M27.91,4.86c-1.47-.55-2.18.78-2.34,2.11-.19,1.51-.33,9.72,1.8,9.72.58,0,.87-.43,1.08-.91.59-1.29.45-10.27-.54-10.92m63.69-.44c-1.55-.32-2.23,1.71-2.38,2.95-.18,1.5-.31,8.89,1.4,9.3,2.01.48,1.89-7.67,1.77-8.89-.11-1.16-.58-2.23-.79-3.36m4.75,3.56c7.64.85,18.07-3.48,19.33,7.35-.15,25.02.38,50.15-1.13,75.09-.2,3.35-.43,7.64-2.96,10.08-3.75,3.61-12.38,2.57-17.41,2.75-23.96.87-49.7,1.13-73.52.38-7.46-.24-19.03,2.26-19.97-8.1-1.78-19.53.39-41.22,1.2-60.86.24-5.79-.2-12.02.39-17.8.98-9.72,11.92-8.18,18.97-8.11-.06-10.8,11.8-11.3,11.91-.45,1.04.61,2.16.03,3.29.03,13.72.06,28.33.64,41.94.04,2.15-.1,4.35-.57,6.53-.59,1.02-2.91.92-6.77,4.63-7.62,4.94-1.14,7.12,3.6,6.81,7.8"/>
      <path class="cls-3" d="m55.43,58.57h-15.02l-.59.99-.79,14.43,15.81.4c.52-4.01.65-8.02.79-12.06.03-.82,1.04-3.37-.2-3.76m5.34-4.35h15.02c.34-2.42-.16-13,2.24-13.8,1.34-.44,2.37.93,2.52,2.11.36,2.77-.05,8.96-.42,11.88-.27,2.15-.5,3.88-2.95,4.16-2.38.28-16.02-.53-16.64.36l-1.78,30.24-1.82,1.73c-.61.2-2.51-1.46-2.51-1.7v-9.88c0-.09.59-.45.4-.59l-15.81-.4c-.59,2.31.27,12.38-2.96,12.63-2.74.21-1.77-4.99-1.77-6.49,0-2.05-.04-4.1-.02-6.14h-16.8c-1.05,0-2.3-3.44-.31-4.26,3.09-1.28,16.86.56,17.51-.09l.79-15.42h-16.01c-.52,0-1.85-2.12-1.41-2.9.07-.28,1.55-.9,1.89-.96,2.38-.42,14.78.26,15.75-.45,1.43-3.01-.54-7.7,1.53-10.33,1.44-1.82,2.95-1.48,3.77.62l-.83,8.69.41,1.21h15.47c.93-.65-.2-11.57,1.6-13.82,1.43-1.8,3.63.2,3.91,1.97l-.79,11.63Z"/>
      <path class="cls-3" d="m77.54,73.43c.4.43.91.76,1.22,1.35.76.21,3.68-4.72,4.22-5.65,2.06-3.52,12.34-24.93,14.16-25.77,2.84-1.3,4.26,1.77,2.84,4.02-5.79,9.09-9.93,19.21-15.43,28.45-.43.72-2.97,4.92-3.23,5.07-2.25,1.26-5.87-3.02-7.32-4.54-1.02-1.07-5.52-6.18-5.91-7.14-.35-.85-.45-2.24.14-2.99.37-.44.87-.57,1.42-.59,2.51-.13,6.12,5.92,7.87,7.78"/>
    </g>
  </g>
</svg>