<?xml version="1.0" encoding="UTF-8"?>
<svg id="Capa_2" data-name="Capa 2" xmlns="http://www.w3.org/2000/svg" xmlns:xlink="http://www.w3.org/1999/xlink" viewBox="0 0 108.41 82.37">
  <defs>
    <style>
      .cls-1 {
        clip-path: url(#clippath);
      }

      .cls-2 {
        fill: none;
      }

      .cls-2, .cls-3 {
        stroke-width: 0px;
      }

      .cls-3 {
        fill: #463329;
      }
    </style>
    <clipPath id="clippath">
      <rect class="cls-2" width="108.41" height="82.37"/>
    </clipPath>
  </defs>
  <g id="Layer_1" data-name="Layer 1">
    <g class="cls-1">
      <path class="cls-3" d="m59.81,56.31c-1.85.39-3.24,1.8-3.46,3.65-.34,2.9-.4,12.62.03,15.4.74,4.7,10.69,2.61,13.99,2.57,9.49-.11,19,.03,28.5,0,1.91,0,3.73.94,4.71-1.98.47-1.41.49-14.5.19-16.36-.22-1.4-1.52-2.56-2.72-3.21l-41.24-.08Zm-52.98,0c-1.65.43-2.09,1.73-2.26,3.28-.4,3.54-.41,12.69,0,16.22.08.73.27,1.84,1.06,2.1l45.11-.23c2.72-1.26,1.56-11.62,1.43-14.47-.12-2.54.81-4.98-2.23-6.69l-43.1-.22Zm96.07-25.27c-.59-.49-1.33-.47-2.05-.53-3.77-.32-13.06-.48-16.64,0-1.36.18-2.78,1.63-2.96,2.97-.41,3.08-.35,12.69.01,15.84.25,2.15,1.35,2.79,3.35,2.98,3.88.35,12.41.41,16.23-.02,2.36-.26,3.1-.99,3.36-3.36.35-3.17.38-11.8-.04-14.99-.09-.72-.75-2.47-1.25-2.89m-68.79-.43c-1.16.26-2.19,1.58-2.47,2.67-.49,1.9-.51,13.83-.16,16,.2,1.28,1.2,2.28,2.33,2.81l40.16.19c1.75-.04,2.58-1.33,3.19-2.78-.36-4.28-.16-8.58-.25-12.87-.05-2.3,1-4.68-1.94-5.93l-40.85-.09Zm-7.52,20.74c1.79-1.66.99-4.41,1.06-6.33.14-3.54.66-7.64.26-11.14-.21-1.81-1.15-2.64-2.85-3.08-2.56-.66-14.57-.62-17.53-.28-1.83.21-2.76,1.15-2.97,2.97-.37,3.2-.46,13.07.03,16.19.32,2.06,2.29,2.45,4.11,2.61,3.72.33,11.8.4,15.44,0,.72-.08,1.93-.45,2.44-.92M56.85,5.32c-.46.49-.46,1.4-.51,2.06-.31,3.67-.39,11.45.02,15.04.31,2.75,1.5,3.53,4.14,3.77,12.91,1.2,27.65-.95,40.75,0,1,.05,2.1-1.09,2.37-1.98.57-1.88.39-13.13.17-15.63-.09-.98-.48-3.77-1.44-4.09l-42.65-.09c-.74,0-2.38.42-2.84.91m-51.22-.81c-.86.3-.98.87-1.09,1.68-.43,3.26-.44,14.97,0,18.22.15,1.14.52,1.54,1.58,1.98,12.67-.18,25.98.85,38.59.18,2.09-.11,6.01-.12,6.71-2.35.17-6.06.5-12.23,0-18.23l-1.11-1.26-44.7-.21Zm-1.17-3.94c14.55.85,31.07-1.46,45.38-.11.81.08,1.51.13,2.27.5,2.07,1.02,1,2.3,4.01-.12,14.96.36,32.3-1.73,47.09-.39,1.98.18,3.37,1.21,3.95,3.17,1.01,3.43.98,16.47.58,20.37-.14,1.34-1.15,3.24-1.15,3.96,0,.71.8,1.7.98,2.55.94,4.51,1.03,14.5.57,19.19-.18,1.81-1.5,4.02-1.57,5.17-.07,1.02,1.01,3.63,1.17,5.12.36,3.48.42,15.99-.6,18.76-.65,1.76-1.89,3.28-3.92,3.19-14.3-1.11-30.66,1.41-44.71,0-3.09-.31-4.04-1.89-7.87,0-14.27-.86-29.79,1.1-43.91,0-4.68-.36-6.16-1.87-6.52-6.52-.31-3.99-.37-15.6.68-19.12.21-.7,1.25-1.94,1.22-2.25-.02-.27-.92-.93-1.17-1.5-1.21-2.75-1.07-18.92-.12-22.02.19-.63.95-1.12.97-1.77.02-.6-1.35-2.97-1.52-4.4-.48-4.03.2-8.21.37-12.19C.81,7.99-1.03,1.5,4.46.57"/>
    </g>
  </g>
</svg>