<?xml version="1.0" encoding="UTF-8"?>
<svg id="Capa_2" data-name="Capa 2" xmlns="http://www.w3.org/2000/svg" xmlns:xlink="http://www.w3.org/1999/xlink" viewBox="0 0 135.65 100.12">
  <defs>
    <style>
      .cls-1 {
        clip-path: url(#clippath);
      }

      .cls-2 {
        fill: none;
      }

      .cls-2, .cls-3 {
        stroke-width: 0px;
      }

      .cls-3 {
        fill: #463329;
      }
    </style>
    <clipPath id="clippath">
      <rect class="cls-2" width="135.65" height="100.12"/>
    </clipPath>
  </defs>
  <g id="Layer_1" data-name="Layer 1">
    <g class="cls-1">
      <path class="cls-3" d="m93.1,54.17c.1-5.55-1.4-11.61-8.1-11.24l1.99,10.82,6.1.42ZM5.86,19.48l-.03,2.03,3.62.05.03-2.03-3.62-.05Zm16.63,2.3c.02-.97.24-2.08-.68-2.7h-8.32v2.7h9Zm12.14-10.79c-8.42-.1-8.3,6.11-7.64,12.82.46,4.72,2.18,6.05,6.97,6.09.95,0,.57.03.68-.68.79-5.29-.7-12.7,0-18.23m13.94-.9h-9.44v20.69s9,.45,9,.45c-.57-7.05-.42-14.2.45-21.14m18.89,26.99c8.31.79,24.79-1.45,28.8,7.86,1.61,3.75,1.25,7.8,1.84,11.65.75,4.84,3.41,14.81,3.09,18.94-.73,9.19-13.18,6.6-12.1,15.25.75,6.05,8.68,3.9,12.76,3.85,4.88-.06,17.63.8,20.95-2.89,2.67-2.96.45-12.58-.16-16.51-1.13-7.35-3.28-14.99-4.28-22.26-.79-5.75-1.24-10.78,2.87-15.42,2.28-2.57,8.06-4.88,9.18-7.91,1.31-3.53-.13-17.17-1.55-20.91-.85-2.22-3.22-2.97-5.39-3.16-13.46-1.19-28.67.91-42.32.04l-14.15-.47.45,31.94Zm-4.95,0V5.82c-.34-.46-.39-.49-.92-.49-1.38,0-3.76.13-5.15.27-2.26.22-3.03.66-3.33,2.97-.29,2.21-.46,6.15-.51,8.48-.09,3.4.12,16.56,1.77,18.86l8.14,1.18Zm32.7,40.79c2.97-2.64-.01-9.18-.64-12.81-.3-1.72-.33-3.72-.59-5.48-2.71-.64-8.89.01-10.79-2.15-2.09-2.37-1.02-11.63-3.19-14.9-3.94-.28-7.93.14-11.87-.04-3.84-.18-14.03-.67-16.83-2.96-1.21-.99-1.25-2.27-2.12-3.37-6.31.07-13.77-.26-19.84-2.11-3.39-1.03-6.02-3.59-6.44-7.27-.65-.56-14.52-.04-17.25-.52-2.97-.52-6.25-2.6-5.54-5.94,1.95-9.27,15.78-4.35,22.29-6.03l.45-.24c2.11-10.19,18.38-8.37,26.33-8.88,1.36-3.11,3.52-4.19,6.83-4.51,21.49-2.05,46.1,1.53,67.92-.03,3.75.42,7.64,1.96,9.28,5.56,1.88,4.12,3.13,19.83,2.05,24.24-1.57,6.42-5.2,5.69-9.28,9.16-2.54,2.16-3.25,4.33-3.63,7.61,1.44,10.88,4.36,21.56,5.78,32.44,1.31,10.05,1.72,17.15-10.16,19.4-4.85.92-13.17.93-18.31,1.03-3.25.06-7.26.3-10.25-1.04-5.88-2.63-6.47-12.45-2.1-16.71,2.09-2.03,6.26-2.98,7.92-4.45"/>
      <path class="cls-3" d="m99.17,26.28c-.95-.27-1.53-2.26-.9-3.15l1-.81c5.82-.27,11.65.04,17.47-.07,1.76-.03,3.18-1.01,5.05-.14,2.3,1.08.16,4.16-.57,4.16h-22.04Z"/>
      <path class="cls-3" d="m99.62,13.24h22.49c.46,0,1.97,2.47.21,3.36-.19.1-2.33.69-2.46.69h-20.24c-1.18,0-1.71-3.46,0-4.05"/>
    </g>
  </g>
</svg>