<?xml version="1.0" encoding="UTF-8"?>
<svg id="Capa_2" data-name="Capa 2" xmlns="http://www.w3.org/2000/svg" viewBox="0 0 170.23 97.45">
  <defs>
    <style>
      .cls-1 {
        fill: none;
        stroke: #4a2f25;
        stroke-miterlimit: 10;
        stroke-width: 1.59px;
      }

      .cls-2 {
        fill: #463429;
      }

      .cls-2, .cls-3 {
        stroke-width: 0px;
      }

      .cls-3 {
        fill: #fff;
      }
    </style>
  </defs>
  <g id="Layer_1" data-name="Layer 1">
    <g>
      <rect class="cls-3" y="1.6" width="170.23" height="95.85"/>
      <g>
        <rect class="cls-1" x="10.35" y="56.46" width="148.61" height="28.76"/>
        <path class="cls-2" d="m99.02,30.6c1.06-2.63,1.59-5.46,1.59-8.48s-.57-5.74-1.73-8.39c-1.16-2.65-2.74-4.98-4.74-6.98-2-2-4.33-3.58-6.98-4.74-2.65-1.16-5.47-1.74-8.45-1.74s-5.85.58-8.48,1.74c-2.63,1.16-4.93,2.74-6.89,4.74-1.97,2-3.51,4.33-4.65,6.98-1.14,2.65-1.71,5.45-1.71,8.39s.57,5.85,1.71,8.48c1.14,2.63,2.69,4.94,4.65,6.92,1.96,1.98,4.26,3.55,6.89,4.68,2.63,1.14,5.46,1.71,8.48,1.71h21.98v-6.41h-5.74c1.54-1.86,3.01-4.27,4.07-6.9m-5.98-2.33c-.81,1.91-1.9,3.57-3.3,4.97-1.39,1.42-3.02,2.54-4.89,3.36-1.87.83-3.86,1.24-5.98,1.24s-4.18-.41-6.06-1.24c-1.89-.82-3.53-1.94-4.92-3.36-1.39-1.41-2.5-3.07-3.3-4.97-.81-1.9-1.21-3.94-1.21-6.1s.4-4.2,1.21-6.12c.8-1.92,1.89-3.59,3.27-5.01,1.37-1.41,3.01-2.53,4.89-3.36,1.88-.83,3.89-1.24,6.01-1.24s4.12.41,6.01,1.24c1.88.83,3.52,1.94,4.92,3.36,1.39,1.41,2.5,3.07,3.33,4.98.83,1.9,1.24,3.94,1.24,6.1s-.4,4.25-1.21,6.15"/>
        <path class="cls-2" d="m134.81,28.42c0,1.38-.26,2.64-.77,3.8-.51,1.16-1.21,2.18-2.09,3.06-.88.89-1.92,1.57-3.12,2.06-1.2.49-2.48.74-3.86.74s-2.71-.24-3.89-.74c-1.18-.49-2.21-1.18-3.09-2.06-.88-.88-1.57-1.9-2.06-3.06-.49-1.16-.74-2.42-.74-3.8V.55h-6.48v28.06c0,2.35.42,4.48,1.26,6.39.85,1.91,2,3.54,3.48,4.89,1.47,1.35,3.19,2.41,5.15,3.15,1.96.74,4.08,1.12,6.36,1.12s4.41-.37,6.39-1.12c1.98-.74,3.71-1.8,5.18-3.15,1.47-1.36,2.63-2.99,3.48-4.89.84-1.9,1.27-4.03,1.27-6.39V.55h-6.48v27.88h0Z"/>
      </g>
      <rect class="cls-2" x="150.6" y=".55" width="6.42" height="43.37"/>
      <path class="cls-2" d="m34.87,13.63l12.44,24.24h-24.9l12.46-24.24Zm0-13.63L12.29,43.91h45.11L34.87,0Z"/>
      <g>
        <path class="cls-2" d="m61.73,75.36h5.32v1.64h-7.36v-11.72h2.04v10.08Z"/>
        <path class="cls-2" d="m70.76,77h-2.03v-11.72h2.03v11.72Z"/>
        <path class="cls-2" d="m77.4,74.45l2.98-9.17h2.24l-4.22,11.72h-1.97l-4.2-11.72h2.23l2.95,9.17Z"/>
        <path class="cls-2" d="m86.08,77h-2.03v-11.72h2.03v11.72Z"/>
        <path class="cls-2" d="m97.88,77h-2.04l-5.22-8.32v8.32h-2.04v-11.72h2.04l5.24,8.35v-8.35h2.02v11.72Z"/>
        <path class="cls-2" d="m109.27,75.48c-.42.55-1.01.97-1.76,1.26s-1.6.43-2.56.43-1.85-.22-2.61-.67c-.76-.45-1.34-1.08-1.75-1.91s-.62-1.8-.64-2.9v-.92c0-1.77.42-3.15,1.27-4.15s2.03-1.49,3.55-1.49c1.3,0,2.34.32,3.11.97.77.65,1.23,1.58,1.38,2.79h-2c-.23-1.41-1.04-2.12-2.46-2.12-.91,0-1.61.33-2.08.98s-.72,1.62-.74,2.89v.9c0,1.26.27,2.24.8,2.94.53.7,1.28,1.05,2.23,1.05,1.04,0,1.78-.23,2.22-.7v-2.28h-2.41v-1.55h4.44v4.49Z"/>
      </g>
    </g>
  </g>
</svg>